<svg width="12px" height="12px" viewBox="0 0 12 12" version="1.1" xmlns="http://www.w3.org/2000/svg" xmlns:xlink="http://www.w3.org/1999/xlink">
    <g stroke="none" stroke-width="1" fill="none" fill-rule="evenodd">
        <g class="fill" fill-rule="nonzero">
            <path d="M9.75,5.55 L9.75,3.75 C9.75,1.65 8.1,0 6,0 C3.9,0 2.25,1.65 2.25,3.75 L2.25,5.55 C1.05,6.225 0,7.2 0,9 C0,10.65 2.775,12 6,12 C9.225,12 12,10.65 12,9 C12,7.2 10.875,6.15 9.75,5.55 Z M6,10.5 C3.225,10.5 1.5,9.45 1.5,9 C1.5,8.625 2.4,8.025 3.975,7.725 C4.35,8.475 5.1,9 6,9 C6.9,9 7.65,8.475 8.025,7.725 C9.6,8.025 10.5,8.7 10.5,9 C10.5,9.45 8.775,10.5 6,10.5 Z"></path>
        </g>
    </g>
</svg>
