<svg width="12px" height="12px" viewBox="0 0 12 12" version="1.1" xmlns="http://www.w3.org/2000/svg" xmlns:xlink="http://www.w3.org/1999/xlink">
    <g class="fill" fill-rule="nonzero">
        <path d="M8.25,0 C7.275,0 6.3,0.375 5.625,1.125 L4.725,1.95 C4.425,2.25 4.425,2.7 4.725,3 C5.025,3.3 5.475,3.3 5.775,3 L6.675,2.1 C7.5,1.275 9,1.275 9.825,2.1 C10.275,2.55 10.5,3.15 10.5,3.75 C10.5,4.35 10.275,4.95 9.825,5.325 L9,6.225 C8.7,6.525 8.7,6.975 9,7.275 C9.15,7.425 9.375,7.5 9.525,7.5 C9.675,7.5 9.9,7.425 10.05,7.275 L10.95,6.375 C11.625,5.7 12,4.725 12,3.75 C12,2.775 11.625,1.8 10.875,1.125 C10.2,0.375 9.225,0 8.25,0 Z"></path>
        <path d="M6.225,9 L5.325,9.9 C4.5,10.725 3,10.725 2.175,9.9 C1.725,9.45 1.5,8.85 1.5,8.25 C1.5,7.65 1.725,7.05 2.175,6.675 L3,5.775 C3.3,5.475 3.3,5.025 3,4.725 C2.7,4.425 2.25,4.425 1.95,4.725 L1.125,5.625 C0.375,6.3 0,7.275 0,8.25 C0,9.225 0.375,10.2 1.125,10.875 C1.8,11.625 2.775,12 3.75,12 C4.725,12 5.7,11.625 6.375,10.875 L7.275,9.975 C7.575,9.675 7.575,9.225 7.275,8.925 C6.975,8.625 6.525,8.7 6.225,9 Z"></path>
        <path d="M7.05,3.9 L3.9,7.05 C3.6,7.35 3.6,7.8 3.9,8.1 C4.05,8.25 4.275,8.325 4.425,8.325 C4.575,8.325 4.8,8.25 4.95,8.1 L8.1,4.95 C8.4,4.65 8.4,4.2 8.1,3.9 C7.8,3.6 7.35,3.6 7.05,3.9 Z"></path>
    </g>
</svg>
