<svg width="12px" height="12px" viewBox="0 0 12 12" version="1.1" xmlns="http://www.w3.org/2000/svg" xmlns:xlink="http://www.w3.org/1999/xlink">
    <g class="fill" fill-rule="nonzero">
        <path d="M2.55,1.5 L6,1.5 L6,3 L7.5,3 L7.5,0.75 C7.5,0.3 7.2,0 6.75,0 L0.75,0 C0.3,0 0,0.3 0,0.75 L0,7.5 C0,7.725 0.075,7.875 0.225,8.025 L3.975,11.775 C4.125,11.925 4.275,12 4.5,12 C4.575,12 4.725,12 4.8,11.925 C5.1,11.85 5.25,11.55 5.25,11.25 L5.25,4.5 C5.25,4.275 5.175,4.125 5.025,3.975 L2.55,1.5 Z M3.75,9.45 L1.5,7.2 L1.5,2.55 L3.75,4.8 L3.75,9.45 Z"></path>
        <path d="M11.775,5.475 L9,2.7 L7.95,3.75 L9.45,5.25 L6,5.25 L6,6.75 L9.45,6.75 L7.95,8.25 L9,9.3 L11.775,6.525 C12.075,6.225 12.075,5.775 11.775,5.475 Z"></path>
    </g>
</svg>
