<svg width="44px" height="44px" viewBox="0 0 44 44" version="1.1" xmlns="http://www.w3.org/2000/svg" xmlns:xlink="http://www.w3.org/1999/xlink">
    <g stroke="none" stroke-width="1" fill="none" fill-rule="evenodd">
        <g transform="translate(-103.000000, -40.000000)" fill="#3E8CF1">
            <g transform="translate(103.000000, 40.000000)">
                <path d="M22,44 C9.8497355,44 0,34.1502645 0,22 C0,9.8497355 9.8497355,0 22,0 C34.1502645,0 44,9.8497355 44,22 C44,34.1502645 34.1502645,44 22,44 Z M14.6232263,31.8678147 C15.3421018,32.39633 16.1203204,32.8486674 16.9460151,33.2129451 C17.1637852,34.0083385 17.4040245,34.7501643 17.6639692,35.4304494 C19.0049146,35.8524742 20.43192,36.08 21.912,36.08 C23.39208,36.08 24.8190854,35.8524742 26.1600308,35.4304494 C26.4199755,34.7501643 26.6602148,34.0083385 26.8779849,33.2129451 C27.7036796,32.8486674 28.4818982,32.39633 29.2007737,31.8678147 C29.9969238,32.0765838 30.7580544,32.2391784 31.4759121,32.3540132 C33.5746767,30.4258652 35.090437,27.8716502 35.728,24.9869336 C35.2692278,24.421025 34.7472981,23.8414189 34.1677355,23.2545099 C34.2153699,22.8135542 34.2398104,22.3656349 34.2398104,21.912 C34.2398104,21.4583651 34.2153699,21.0104458 34.1677355,20.5694901 C34.7472981,19.9825811 35.2692278,19.402975 35.7279996,18.8370668 C35.090437,15.9523498 33.5746767,13.3981348 31.4759121,11.4699868 C30.7580544,11.5848216 29.9969238,11.7474162 29.2007737,11.9561853 C28.4818982,11.42767 27.7036796,10.9753326 26.8779849,10.6110549 C26.6602148,9.81566147 26.4199755,9.07383569 26.1600308,8.39355055 C24.8190854,7.97152581 23.39208,7.744 21.912,7.744 C20.43192,7.744 19.0049146,7.97152581 17.6639692,8.39355055 C17.4040245,9.07383569 17.1637852,9.81566147 16.9460151,10.6110549 C16.1203204,10.9753326 15.3421018,11.42767 14.6232263,11.9561853 C13.8270762,11.7474162 13.0659456,11.5848216 12.3480879,11.4699868 C10.2493233,13.3981348 8.73356299,15.9523498 8.096,18.8370664 C8.55477223,19.402975 9.07670194,19.9825811 9.65626455,20.5694901 C9.6086301,21.0104458 9.58418962,21.4583651 9.58418962,21.912 C9.58418962,22.3656349 9.6086301,22.8135542 9.65626455,23.2545099 C9.07670194,23.8414189 8.55477223,24.421025 8.09600037,24.9869332 C8.73356299,27.8716502 10.2493233,30.4258652 12.3480879,32.3540132 C13.0659456,32.2391784 13.8270762,32.0765838 14.6232263,31.8678147 Z" id="Combined-Shape" fill-opacity="0.55"></path>
                <path d="M22.12375,36.608 C10.3000239,36.608 0,29.304 0,21.876414 C6.8495252e-16,14.4488279 10.3000239,7.392 22.12375,7.392 C33.9474761,7.392 44,14.4488279 44,21.876414 C44,29.304 33.9474761,36.608 22.12375,36.608 Z M14.6232263,31.8678147 C15.3421018,32.39633 16.1203204,32.8486674 16.9460151,33.2129451 C17.1637852,34.0083385 17.4040245,34.7501643 17.6639692,35.4304494 C19.0049146,35.8524742 20.43192,36.08 21.912,36.08 C23.39208,36.08 24.8190854,35.8524742 26.1600308,35.4304494 C26.4199755,34.7501643 26.6602148,34.0083385 26.8779849,33.2129451 C27.7036796,32.8486674 28.4818982,32.39633 29.2007737,31.8678147 C29.9969238,32.0765838 30.7580544,32.2391784 31.4759121,32.3540132 C33.5746767,30.4258652 35.090437,27.8716502 35.728,24.9869336 C35.2692278,24.421025 34.7472981,23.8414189 34.1677355,23.2545099 C34.2153699,22.8135542 34.2398104,22.3656349 34.2398104,21.912 C34.2398104,21.4583651 34.2153699,21.0104458 34.1677355,20.5694901 C34.7472981,19.9825811 35.2692278,19.402975 35.7279996,18.8370668 C35.090437,15.9523498 33.5746767,13.3981348 31.4759121,11.4699868 C30.7580544,11.5848216 29.9969238,11.7474162 29.2007737,11.9561853 C28.4818982,11.42767 27.7036796,10.9753326 26.8779849,10.6110549 C26.6602148,9.81566147 26.4199755,9.07383569 26.1600308,8.39355055 C24.8190854,7.97152581 23.39208,7.744 21.912,7.744 C20.43192,7.744 19.0049146,7.97152581 17.6639692,8.39355055 C17.4040245,9.07383569 17.1637852,9.81566147 16.9460151,10.6110549 C16.1203204,10.9753326 15.3421018,11.42767 14.6232263,11.9561853 C13.8270762,11.7474162 13.0659456,11.5848216 12.3480879,11.4699868 C10.2493233,13.3981348 8.73356299,15.9523498 8.096,18.8370664 C8.55477223,19.402975 9.07670194,19.9825811 9.65626455,20.5694901 C9.6086301,21.0104458 9.58418962,21.4583651 9.58418962,21.912 C9.58418962,22.3656349 9.6086301,22.8135542 9.65626455,23.2545099 C9.07670194,23.8414189 8.55477223,24.421025 8.09600037,24.9869332 C8.73356299,27.8716502 10.2493233,30.4258652 12.3480879,32.3540132 C13.0659456,32.2391784 13.8270762,32.0765838 14.6232263,31.8678147 Z" id="Combined-Shape" fill-opacity="0.35"></path>
                <path d="M7.392,22.12375 C7.392,10.3000239 14.696,4.54808473e-16 22.123586,0 C29.5511721,2.30144047e-16 36.608,10.3000239 36.608,22.12375 C36.608,33.9474761 29.5511721,44 22.123586,44 C14.696,44 7.392,33.9474761 7.392,22.12375 Z M14.6232263,31.8678147 C15.3421018,32.39633 16.1203204,32.8486674 16.9460151,33.2129451 C17.1637852,34.0083385 17.4040245,34.7501643 17.6639692,35.4304494 C19.0049146,35.8524742 20.43192,36.08 21.912,36.08 C23.39208,36.08 24.8190854,35.8524742 26.1600308,35.4304494 C26.4199755,34.7501643 26.6602148,34.0083385 26.8779849,33.2129451 C27.7036796,32.8486674 28.4818982,32.39633 29.2007737,31.8678147 C29.9969238,32.0765838 30.7580544,32.2391784 31.4759121,32.3540132 C33.5746767,30.4258652 35.090437,27.8716502 35.728,24.9869336 C35.2692278,24.421025 34.7472981,23.8414189 34.1677355,23.2545099 C34.2153699,22.8135542 34.2398104,22.3656349 34.2398104,21.912 C34.2398104,21.4583651 34.2153699,21.0104458 34.1677355,20.5694901 C34.7472981,19.9825811 35.2692278,19.402975 35.7279996,18.8370668 C35.090437,15.9523498 33.5746767,13.3981348 31.4759121,11.4699868 C30.7580544,11.5848216 29.9969238,11.7474162 29.2007737,11.9561853 C28.4818982,11.42767 27.7036796,10.9753326 26.8779849,10.6110549 C26.6602148,9.81566147 26.4199755,9.07383569 26.1600308,8.39355055 C24.8190854,7.97152581 23.39208,7.744 21.912,7.744 C20.43192,7.744 19.0049146,7.97152581 17.6639692,8.39355055 C17.4040245,9.07383569 17.1637852,9.81566147 16.9460151,10.6110549 C16.1203204,10.9753326 15.3421018,11.42767 14.6232263,11.9561853 C13.8270762,11.7474162 13.0659456,11.5848216 12.3480879,11.4699868 C10.2493233,13.3981348 8.73356299,15.9523498 8.096,18.8370664 C8.55477223,19.402975 9.07670194,19.9825811 9.65626455,20.5694901 C9.6086301,21.0104458 9.58418962,21.4583651 9.58418962,21.912 C9.58418962,22.3656349 9.6086301,22.8135542 9.65626455,23.2545099 C9.07670194,23.8414189 8.55477223,24.421025 8.09600037,24.9869332 C8.73356299,27.8716502 10.2493233,30.4258652 12.3480879,32.3540132 C13.0659456,32.2391784 13.8270762,32.0765838 14.6232263,31.8678147 Z" id="Combined-Shape" fill-opacity="0.35"></path>
                <path d="M11.5830797,11.7580886 C19.9437166,3.39745167 32.3916413,1.27894288 37.6437377,6.53103934 C42.8958342,11.7831358 40.6025483,24.0562834 32.2419114,32.4169203 C23.8812745,40.7775573 11.7831358,42.8958342 6.53103934,37.6437377 C1.27894288,32.3916413 3.22244275,20.1187255 11.5830797,11.7580886 Z M14.6232263,31.8678147 C15.3421018,32.39633 16.1203204,32.8486674 16.9460151,33.2129451 C17.1637852,34.0083385 17.4040245,34.7501643 17.6639692,35.4304494 C19.0049146,35.8524742 20.43192,36.08 21.912,36.08 C23.39208,36.08 24.8190854,35.8524742 26.1600308,35.4304494 C26.4199755,34.7501643 26.6602148,34.0083385 26.8779849,33.2129451 C27.7036796,32.8486674 28.4818982,32.39633 29.2007737,31.8678147 C29.9969238,32.0765838 30.7580544,32.2391784 31.4759121,32.3540132 C33.5746767,30.4258652 35.090437,27.8716502 35.728,24.9869336 C35.2692278,24.421025 34.7472981,23.8414189 34.1677355,23.2545099 C34.2153699,22.8135542 34.2398104,22.3656349 34.2398104,21.912 C34.2398104,21.4583651 34.2153699,21.0104458 34.1677355,20.5694901 C34.7472981,19.9825811 35.2692278,19.402975 35.7279996,18.8370668 C35.090437,15.9523498 33.5746767,13.3981348 31.4759121,11.4699868 C30.7580544,11.5848216 29.9969238,11.7474162 29.2007737,11.9561853 C28.4818982,11.42767 27.7036796,10.9753326 26.8779849,10.6110549 C26.6602148,9.81566147 26.4199755,9.07383569 26.1600308,8.39355055 C24.8190854,7.97152581 23.39208,7.744 21.912,7.744 C20.43192,7.744 19.0049146,7.97152581 17.6639692,8.39355055 C17.4040245,9.07383569 17.1637852,9.81566147 16.9460151,10.6110549 C16.1203204,10.9753326 15.3421018,11.42767 14.6232263,11.9561853 C13.8270762,11.7474162 13.0659456,11.5848216 12.3480879,11.4699868 C10.2493233,13.3981348 8.73356299,15.9523498 8.096,18.8370664 C8.55477223,19.402975 9.07670194,19.9825811 9.65626455,20.5694901 C9.6086301,21.0104458 9.58418962,21.4583651 9.58418962,21.912 C9.58418962,22.3656349 9.6086301,22.8135542 9.65626455,23.2545099 C9.07670194,23.8414189 8.55477223,24.421025 8.09600037,24.9869332 C8.73356299,27.8716502 10.2493233,30.4258652 12.3480879,32.3540132 C13.0659456,32.2391784 13.8270762,32.0765838 14.6232263,31.8678147 Z" id="Combined-Shape" fill-opacity="0.35"></path>
                <path d="M32.3634435,11.6363952 C40.7240804,19.9970322 42.8425892,32.4449568 37.5904928,37.6970533 C32.3383963,42.9491497 20.0652487,40.6558639 11.7046118,32.295227 C3.34397486,23.93459 1.22569795,11.8364514 6.47779441,6.5843549 C11.7298909,1.33225845 24.0028066,3.27575831 32.3634435,11.6363952 Z M14.6232263,31.8678147 C15.3421018,32.39633 16.1203204,32.8486674 16.9460151,33.2129451 C17.1637852,34.0083385 17.4040245,34.7501643 17.6639692,35.4304494 C19.0049146,35.8524742 20.43192,36.08 21.912,36.08 C23.39208,36.08 24.8190854,35.8524742 26.1600308,35.4304494 C26.4199755,34.7501643 26.6602148,34.0083385 26.8779849,33.2129451 C27.7036796,32.8486674 28.4818982,32.39633 29.2007737,31.8678147 C29.9969238,32.0765838 30.7580544,32.2391784 31.4759121,32.3540132 C33.5746767,30.4258652 35.090437,27.8716502 35.728,24.9869336 C35.2692278,24.421025 34.7472981,23.8414189 34.1677355,23.2545099 C34.2153699,22.8135542 34.2398104,22.3656349 34.2398104,21.912 C34.2398104,21.4583651 34.2153699,21.0104458 34.1677355,20.5694901 C34.7472981,19.9825811 35.2692278,19.402975 35.7279996,18.8370668 C35.090437,15.9523498 33.5746767,13.3981348 31.4759121,11.4699868 C30.7580544,11.5848216 29.9969238,11.7474162 29.2007737,11.9561853 C28.4818982,11.42767 27.7036796,10.9753326 26.8779849,10.6110549 C26.6602148,9.81566147 26.4199755,9.07383569 26.1600308,8.39355055 C24.8190854,7.97152581 23.39208,7.744 21.912,7.744 C20.43192,7.744 19.0049146,7.97152581 17.6639692,8.39355055 C17.4040245,9.07383569 17.1637852,9.81566147 16.9460151,10.6110549 C16.1203204,10.9753326 15.3421018,11.42767 14.6232263,11.9561853 C13.8270762,11.7474162 13.0659456,11.5848216 12.3480879,11.4699868 C10.2493233,13.3981348 8.73356299,15.9523498 8.096,18.8370664 C8.55477223,19.402975 9.07670194,19.9825811 9.65626455,20.5694901 C9.6086301,21.0104458 9.58418962,21.4583651 9.58418962,21.912 C9.58418962,22.3656349 9.6086301,22.8135542 9.65626455,23.2545099 C9.07670194,23.8414189 8.55477223,24.421025 8.09600037,24.9869332 C8.73356299,27.8716502 10.2493233,30.4258652 12.3480879,32.3540132 C13.0659456,32.2391784 13.8270762,32.0765838 14.6232263,31.8678147 Z" id="Combined-Shape" fill-opacity="0.35"></path>
                <circle cx="22" cy="22" r="5.104"></circle>
            </g>
        </g>
    </g>
</svg>
