
<svg width="64px" height="64px" viewBox="0 0 64 64" version="1.1" xmlns="http://www.w3.org/2000/svg" xmlns:xlink="http://www.w3.org/1999/xlink">
    <!-- Generator: Sketch 49.1 (51147) - http://www.bohemiancoding.com/sketch -->
    <desc>Created with Sketch.</desc>
    <defs>
        <circle id="path-1" cx="32" cy="32" r="7.424"></circle>
    </defs>
    <g id="Dashboard" stroke="none" stroke-width="1" fill="none" fill-rule="evenodd">
        <g id="Artboard-2">
            <g id="Logo">
                <path d="M32,64 C14.326888,64 0,49.673112 0,32 C0,14.326888 14.326888,0 32,0 C49.673112,0 64,14.326888 64,32 C64,49.673112 49.673112,64 32,64 Z M21.2701473,46.353185 C22.3157845,47.1219345 23.4477388,47.7798799 24.6487492,48.3097383 C24.9655058,49.4666742 25.3149447,50.5456935 25.6930461,51.5351992 C27.6435121,52.1490534 29.7191563,52.48 31.872,52.48 C34.0248437,52.48 36.1004879,52.1490534 38.0509539,51.5351992 C38.4290553,50.5456935 38.7784942,49.4666742 39.0952508,48.3097383 C40.2962612,47.7798799 41.4282155,47.1219345 42.4738527,46.353185 C43.6318891,46.6568491 44.7389882,46.8933504 45.7831449,47.0603829 C48.8358934,44.255804 51.0406356,40.5405821 51.968,36.3446307 C51.3006949,35.5214909 50.5415245,34.6784274 49.6985243,33.8247416 C49.7678108,33.1833516 49.8033605,32.5318326 49.8033605,31.872 C49.8033605,31.2121674 49.7678108,30.5606484 49.6985243,29.9192584 C50.5415245,29.0655726 51.3006949,28.2225091 51.9679995,27.3993699 C51.0406356,23.2034179 48.8358934,19.488196 45.7831449,16.6836171 C44.7389882,16.8506496 43.6318891,17.0871509 42.4738527,17.390815 C41.4282155,16.6220655 40.2962612,15.9641201 39.0952508,15.4342617 C38.7784942,14.2773258 38.4290553,13.1983065 38.0509539,12.2088008 C36.1004879,11.5949466 34.0248437,11.264 31.872,11.264 C29.7191563,11.264 27.6435121,11.5949466 25.6930461,12.2088008 C25.3149447,13.1983065 24.9655058,14.2773258 24.6487492,15.4342617 C23.4477388,15.9641201 22.3157845,16.6220655 21.2701473,17.390815 C20.1121109,17.0871509 19.0050118,16.8506496 17.9608551,16.6836171 C14.9081066,19.488196 12.7033644,23.2034179 11.776,27.3993693 C12.4433051,28.2225091 13.2024755,29.0655726 14.0454757,29.9192584 C13.9761892,30.5606484 13.9406395,31.2121674 13.9406395,31.872 C13.9406395,32.5318326 13.9761892,33.1833516 14.0454757,33.8247416 C13.2024755,34.6784274 12.4433051,35.5214909 11.7760005,36.3446301 C12.7033644,40.5405821 14.9081066,44.255804 17.9608551,47.0603829 C19.0050118,46.8933504 20.1121109,46.6568491 21.2701473,46.353185 Z" id="Combined-Shape" fill="#548DF9"></path>
                <g id="Combined-Shape">
                    <use fill="#548DF9" xlink:href="#path-1"></use>
                    <use fill-opacity="0.180000007" fill="#FFFFFF" xlink:href="#path-1"></use>
                </g>
                <path d="M32.18,53.248 C14.9818529,53.248 0,42.624 0,31.8202385 C9.96294574e-16,21.016477 14.9818529,10.752 32.18,10.752 C49.3781471,10.752 64,21.016477 64,31.8202385 C64,42.624 49.3781471,53.248 32.18,53.248 Z M21.2701473,46.353185 C22.3157845,47.1219345 23.4477388,47.7798799 24.6487492,48.3097383 C24.9655058,49.4666742 25.3149447,50.5456935 25.6930461,51.5351992 C27.6435121,52.1490534 29.7191563,52.48 31.872,52.48 C34.0248437,52.48 36.1004879,52.1490534 38.0509539,51.5351992 C38.4290553,50.5456935 38.7784942,49.4666742 39.0952508,48.3097383 C40.2962612,47.7798799 41.4282155,47.1219345 42.4738527,46.353185 C43.6318891,46.6568491 44.7389882,46.8933504 45.7831449,47.0603829 C48.8358934,44.255804 51.0406356,40.5405821 51.968,36.3446307 C51.3006949,35.5214909 50.5415245,34.6784274 49.6985243,33.8247416 C49.7678108,33.1833516 49.8033605,32.5318326 49.8033605,31.872 C49.8033605,31.2121674 49.7678108,30.5606484 49.6985243,29.9192584 C50.5415245,29.0655726 51.3006949,28.2225091 51.9679995,27.3993699 C51.0406356,23.2034179 48.8358934,19.488196 45.7831449,16.6836171 C44.7389882,16.8506496 43.6318891,17.0871509 42.4738527,17.390815 C41.4282155,16.6220655 40.2962612,15.9641201 39.0952508,15.4342617 C38.7784942,14.2773258 38.4290553,13.1983065 38.0509539,12.2088008 C36.1004879,11.5949466 34.0248437,11.264 31.872,11.264 C29.7191563,11.264 27.6435121,11.5949466 25.6930461,12.2088008 C25.3149447,13.1983065 24.9655058,14.2773258 24.6487492,15.4342617 C23.4477388,15.9641201 22.3157845,16.6220655 21.2701473,17.390815 C20.1121109,17.0871509 19.0050118,16.8506496 17.9608551,16.6836171 C14.9081066,19.488196 12.7033644,23.2034179 11.776,27.3993693 C12.4433051,28.2225091 13.2024755,29.0655726 14.0454757,29.9192584 C13.9761892,30.5606484 13.9406395,31.2121674 13.9406395,31.872 C13.9406395,32.5318326 13.9761892,33.1833516 14.0454757,33.8247416 C13.2024755,34.6784274 12.4433051,35.5214909 11.7760005,36.3446301 C12.7033644,40.5405821 14.9081066,44.255804 17.9608551,47.0603829 C19.0050118,46.8933504 20.1121109,46.6568491 21.2701473,46.353185 Z" id="Combined-Shape" fill-opacity="0.049999997" fill="#FFFFFF"></path>
                <path d="M10.752,32.18 C10.752,14.9818529 21.376,6.61539597e-16 32.1797615,0 C42.983523,3.34754977e-16 53.248,14.9818529 53.248,32.18 C53.248,49.3781471 42.983523,64 32.1797615,64 C21.376,64 10.752,49.3781471 10.752,32.18 Z M21.2701473,46.353185 C22.3157845,47.1219345 23.4477388,47.7798799 24.6487492,48.3097383 C24.9655058,49.4666742 25.3149447,50.5456935 25.6930461,51.5351992 C27.6435121,52.1490534 29.7191563,52.48 31.872,52.48 C34.0248437,52.48 36.1004879,52.1490534 38.0509539,51.5351992 C38.4290553,50.5456935 38.7784942,49.4666742 39.0952508,48.3097383 C40.2962612,47.7798799 41.4282155,47.1219345 42.4738527,46.353185 C43.6318891,46.6568491 44.7389882,46.8933504 45.7831449,47.0603829 C48.8358934,44.255804 51.0406356,40.5405821 51.968,36.3446307 C51.3006949,35.5214909 50.5415245,34.6784274 49.6985243,33.8247416 C49.7678108,33.1833516 49.8033605,32.5318326 49.8033605,31.872 C49.8033605,31.2121674 49.7678108,30.5606484 49.6985243,29.9192584 C50.5415245,29.0655726 51.3006949,28.2225091 51.9679995,27.3993699 C51.0406356,23.2034179 48.8358934,19.488196 45.7831449,16.6836171 C44.7389882,16.8506496 43.6318891,17.0871509 42.4738527,17.390815 C41.4282155,16.6220655 40.2962612,15.9641201 39.0952508,15.4342617 C38.7784942,14.2773258 38.4290553,13.1983065 38.0509539,12.2088008 C36.1004879,11.5949466 34.0248437,11.264 31.872,11.264 C29.7191563,11.264 27.6435121,11.5949466 25.6930461,12.2088008 C25.3149447,13.1983065 24.9655058,14.2773258 24.6487492,15.4342617 C23.4477388,15.9641201 22.3157845,16.6220655 21.2701473,17.390815 C20.1121109,17.0871509 19.0050118,16.8506496 17.9608551,16.6836171 C14.9081066,19.488196 12.7033644,23.2034179 11.776,27.3993693 C12.4433051,28.2225091 13.2024755,29.0655726 14.0454757,29.9192584 C13.9761892,30.5606484 13.9406395,31.2121674 13.9406395,31.872 C13.9406395,32.5318326 13.9761892,33.1833516 14.0454757,33.8247416 C13.2024755,34.6784274 12.4433051,35.5214909 11.7760005,36.3446301 C12.7033644,40.5405821 14.9081066,44.255804 17.9608551,47.0603829 C19.0050118,46.8933504 20.1121109,46.6568491 21.2701473,46.353185 Z" id="Combined-Shape" fill-opacity="0.049999997" fill="#FFFFFF"></path>
                <path d="M16.8481159,17.1026743 C29.0090423,4.94174789 47.1151146,1.86028056 54.7545276,9.49969358 C62.3939406,17.1391066 59.0582521,34.9909577 46.8973257,47.1518841 C34.7363992,59.3128106 17.1391066,62.3939406 9.49969358,54.7545276 C1.86028056,47.1151146 4.68718945,29.2636008 16.8481159,17.1026743 Z M21.2701473,46.353185 C22.3157845,47.1219345 23.4477388,47.7798799 24.6487492,48.3097383 C24.9655058,49.4666742 25.3149447,50.5456935 25.6930461,51.5351992 C27.6435121,52.1490534 29.7191563,52.48 31.872,52.48 C34.0248437,52.48 36.1004879,52.1490534 38.0509539,51.5351992 C38.4290553,50.5456935 38.7784942,49.4666742 39.0952508,48.3097383 C40.2962612,47.7798799 41.4282155,47.1219345 42.4738527,46.353185 C43.6318891,46.6568491 44.7389882,46.8933504 45.7831449,47.0603829 C48.8358934,44.255804 51.0406356,40.5405821 51.968,36.3446307 C51.3006949,35.5214909 50.5415245,34.6784274 49.6985243,33.8247416 C49.7678108,33.1833516 49.8033605,32.5318326 49.8033605,31.872 C49.8033605,31.2121674 49.7678108,30.5606484 49.6985243,29.9192584 C50.5415245,29.0655726 51.3006949,28.2225091 51.9679995,27.3993699 C51.0406356,23.2034179 48.8358934,19.488196 45.7831449,16.6836171 C44.7389882,16.8506496 43.6318891,17.0871509 42.4738527,17.390815 C41.4282155,16.6220655 40.2962612,15.9641201 39.0952508,15.4342617 C38.7784942,14.2773258 38.4290553,13.1983065 38.0509539,12.2088008 C36.1004879,11.5949466 34.0248437,11.264 31.872,11.264 C29.7191563,11.264 27.6435121,11.5949466 25.6930461,12.2088008 C25.3149447,13.1983065 24.9655058,14.2773258 24.6487492,15.4342617 C23.4477388,15.9641201 22.3157845,16.6220655 21.2701473,17.390815 C20.1121109,17.0871509 19.0050118,16.8506496 17.9608551,16.6836171 C14.9081066,19.488196 12.7033644,23.2034179 11.776,27.3993693 C12.4433051,28.2225091 13.2024755,29.0655726 14.0454757,29.9192584 C13.9761892,30.5606484 13.9406395,31.2121674 13.9406395,31.872 C13.9406395,32.5318326 13.9761892,33.1833516 14.0454757,33.8247416 C13.2024755,34.6784274 12.4433051,35.5214909 11.7760005,36.3446301 C12.7033644,40.5405821 14.9081066,44.255804 17.9608551,47.0603829 C19.0050118,46.8933504 20.1121109,46.6568491 21.2701473,46.353185 Z" id="Combined-Shape" fill-opacity="0.049999997" fill="#FFFFFF"></path>
                <path d="M47.0740997,16.9256658 C59.2350261,29.0865923 62.3164934,47.1926645 54.6770804,54.8320775 C47.0376674,62.4714905 29.1858163,59.135802 17.0248899,46.9748756 C4.86396343,34.8139491 1.78283339,17.2166565 9.42224641,9.57724349 C17.0616594,1.93783047 34.9131732,4.76473936 47.0740997,16.9256658 Z M21.2701473,46.353185 C22.3157845,47.1219345 23.4477388,47.7798799 24.6487492,48.3097383 C24.9655058,49.4666742 25.3149447,50.5456935 25.6930461,51.5351992 C27.6435121,52.1490534 29.7191563,52.48 31.872,52.48 C34.0248437,52.48 36.1004879,52.1490534 38.0509539,51.5351992 C38.4290553,50.5456935 38.7784942,49.4666742 39.0952508,48.3097383 C40.2962612,47.7798799 41.4282155,47.1219345 42.4738527,46.353185 C43.6318891,46.6568491 44.7389882,46.8933504 45.7831449,47.0603829 C48.8358934,44.255804 51.0406356,40.5405821 51.968,36.3446307 C51.3006949,35.5214909 50.5415245,34.6784274 49.6985243,33.8247416 C49.7678108,33.1833516 49.8033605,32.5318326 49.8033605,31.872 C49.8033605,31.2121674 49.7678108,30.5606484 49.6985243,29.9192584 C50.5415245,29.0655726 51.3006949,28.2225091 51.9679995,27.3993699 C51.0406356,23.2034179 48.8358934,19.488196 45.7831449,16.6836171 C44.7389882,16.8506496 43.6318891,17.0871509 42.4738527,17.390815 C41.4282155,16.6220655 40.2962612,15.9641201 39.0952508,15.4342617 C38.7784942,14.2773258 38.4290553,13.1983065 38.0509539,12.2088008 C36.1004879,11.5949466 34.0248437,11.264 31.872,11.264 C29.7191563,11.264 27.6435121,11.5949466 25.6930461,12.2088008 C25.3149447,13.1983065 24.9655058,14.2773258 24.6487492,15.4342617 C23.4477388,15.9641201 22.3157845,16.6220655 21.2701473,17.390815 C20.1121109,17.0871509 19.0050118,16.8506496 17.9608551,16.6836171 C14.9081066,19.488196 12.7033644,23.2034179 11.776,27.3993693 C12.4433051,28.2225091 13.2024755,29.0655726 14.0454757,29.9192584 C13.9761892,30.5606484 13.9406395,31.2121674 13.9406395,31.872 C13.9406395,32.5318326 13.9761892,33.1833516 14.0454757,33.8247416 C13.2024755,34.6784274 12.4433051,35.5214909 11.7760005,36.3446301 C12.7033644,40.5405821 14.9081066,44.255804 17.9608551,47.0603829 C19.0050118,46.8933504 20.1121109,46.6568491 21.2701473,46.353185 Z" id="Combined-Shape" fill-opacity="0.049999997" fill="#FFFFFF"></path>
            </g>
        </g>
    </g>
</svg>
