<?xml version="1.0" encoding="utf-8"?>
<!-- Generator: Adobe Illustrator 16.0.0, SVG Export Plug-In . SVG Version: 6.00 Build 0)  -->
<!DOCTYPE svg PUBLIC "-//W3C//DTD SVG 1.1//EN" "http://www.w3.org/Graphics/SVG/1.1/DTD/svg11.dtd">
<svg version="1.1" id="Ebene_2" xmlns="http://www.w3.org/2000/svg" xmlns:xlink="http://www.w3.org/1999/xlink" x="0px" y="0px"
	 width="380.617px" height="370.08px" viewBox="0 0 380.617 370.08" enable-background="new 0 0 380.617 370.08"
	 xml:space="preserve">
<path fill="#7E7BD2" d="M106.23,53.9C61.25,60.23,23.98,91.53,8.1,134.17c0.22-0.71,0.44-1.42,0.67-2.12
	C25.01,90.32,61.87,60.08,106.23,53.9z"/>
<path fill="#7E7BD2" d="M144.52,32.03c-72.4,0-117.66,43.9-135.75,100.02c16.24-41.73-0.23,0.7,0,0c-0.23,0.58-0.45,1.16-0.67,1.75
	c-5.1,16.51-7.88,34-8.32,51.62c-0.06,1.7-0.08,3.43-0.08,5.13c0,116.76,116.75,130.35,116.75,130.35s-8.37-5.2-19.38-15.67
	c-20.86-19.87-51.19-58.15-51.91-114.35c0-76.42,56.71-113.59,98.71-113.59c72.35,0,96.73,72.71,96.73,72.71h47.43
	C288.03,150,263.09,32.03,144.52,32.03z"/>
<path fill="#7E7BD2" d="M8.77,132.05"/>
<path fill="#1F2733" d="M345.853,78.273l-38.037,5.052C297.229,71.399,285,62.189,272,55.094V11.615L233.642-0.057l-27.708,29.266
	l-11.143,2.752c0,0,86.979,30.33,101.735,118.039h44.583l28.299-35.088L345.853,78.273z"/>
<path fill="#1F2733" d="M346.643,189.699l-47.24,0.094c0,0-5.242,98.531-99.459,98.531c-54.082,0-99.613-56.023-99.613-98.73
	c0-73.606,42.719-105.655,42.719-105.655s-88.388,7.523-89.995,105.936c0,40.292,24.154,96.719,73.803,125.965l3.608,41.461
	l39.503,12.779l23.082-35.121c2.317,0.1,4.654,0.166,7.031,0.166c14.257,0,38.655-4.28,38.655-4.28l30.125,30.885l35.787-20.404
	l-4.114-44.013c0,0,19.433-23.313,25.857-35.313h39.611l14.613-42.709L346.643,189.699z"/>
<path fill="#7E7BD2" d="M246.035,192h-1H179v45h53.345c-11.424,19.061-28.604,32.208-43.106,41.465c0,0,4.307,1.105,11.156,1.125
	c24.064,0.09,79.539-8.59,89.498-87.59H246.035z"/>
</svg>
